<svg xmlns="http://www.w3.org/2000/svg" width="408" height="408" viewBox="-0.1 -0.1 10.2 10.2"><rect x="0" y="0" width="1" height="1" fill="#aaa" stroke-width="0"></rect><rect x="1" y="0" width="1" height="1" fill="#aaa" stroke-width="0"></rect><rect x="2" y="0" width="1" height="1" fill="#fff" stroke-width="0"></rect><rect x="3" y="0" width="1" height="1" fill="#fff" stroke-width="0"></rect><rect x="4" y="0" width="1" height="1" fill="#fff" stroke-width="0"></rect><rect x="5" y="0" width="1" height="1" fill="#fff" stroke-width="0"></rect><rect x="6" y="0" width="1" height="1" fill="#aaa" stroke-width="0"></rect><rect x="7" y="0" width="1" height="1" fill="#aaa" stroke-width="0"></rect><rect x="8" y="0" width="1" height="1" fill="#fff" stroke-width="0"></rect><rect x="9" y="0" width="1" height="1" fill="#fff" stroke-width="0"></rect><rect x="0" y="1" width="1" height="1" fill="#aaa" stroke-width="0"></rect><rect x="1" y="1" width="1" height="1" fill="#fff" stroke-width="0"></rect><rect x="2" y="1" width="1" height="1" fill="#fff" stroke-width="0"></rect><rect x="3" y="1" width="1" height="1" fill="#fff" stroke-width="0"></rect><rect x="4" y="1" width="1" height="1" fill="#fff" stroke-width="0"></rect><rect x="5" y="1" width="1" height="1" fill="#fff" stroke-width="0"></rect><rect x="6" y="1" width="1" height="1" fill="#fff" stroke-width="0"></rect><rect x="7" y="1" width="1" height="1" fill="#aaa" stroke-width="0"></rect><rect x="8" y="1" width="1" height="1" fill="#aaa" stroke-width="0"></rect><rect x="9" y="1" width="1" height="1" fill="#fff" stroke-width="0"></rect><rect x="0" y="2" width="1" height="1" fill="#fff" stroke-width="0"></rect><rect x="1" y="2" width="1" height="1" fill="#fff" stroke-width="0"></rect><rect x="2" y="2" width="1" height="1" fill="#fff" stroke-width="0"></rect><rect x="3" y="2" width="1" height="1" fill="#fff" stroke-width="0"></rect><rect x="4" y="2" width="1" height="1" fill="#aaa" stroke-width="0"></rect><rect x="5" y="2" width="1" height="1" fill="#fff" stroke-width="0"></rect><rect x="6" y="2" width="1" height="1" fill="#fff" stroke-width="0"></rect><rect x="7" y="2" width="1" height="1" fill="#aaa" stroke-width="0"></rect><rect x="8" y="2" width="1" height="1" fill="#aaa" stroke-width="0"></rect><rect x="9" y="2" width="1" height="1" fill="#aaa" stroke-width="0"></rect><rect x="0" y="3" width="1" height="1" fill="#fff" stroke-width="0"></rect><rect x="1" y="3" width="1" height="1" fill="#fff" stroke-width="0"></rect><rect x="2" y="3" width="1" height="1" fill="#fff" stroke-width="0"></rect><rect x="3" y="3" width="1" height="1" fill="#fff" stroke-width="0"></rect><rect x="4" y="3" width="1" height="1" fill="#fff" stroke-width="0"></rect><rect x="5" y="3" width="1" height="1" fill="#fff" stroke-width="0"></rect><rect x="6" y="3" width="1" height="1" fill="#fff" stroke-width="0"></rect><rect x="7" y="3" width="1" height="1" fill="#aaa" stroke-width="0"></rect><rect x="8" y="3" width="1" height="1" fill="#aaa" stroke-width="0"></rect><rect x="9" y="3" width="1" height="1" fill="#aaa" stroke-width="0"></rect><rect x="0" y="4" width="1" height="1" fill="#fff" stroke-width="0"></rect><rect x="1" y="4" width="1" height="1" fill="#fff" stroke-width="0"></rect><rect x="2" y="4" width="1" height="1" fill="#fff" stroke-width="0"></rect><rect x="3" y="4" width="1" height="1" fill="#fff" stroke-width="0"></rect><rect x="4" y="4" width="1" height="1" fill="#fff" stroke-width="0"></rect><rect x="5" y="4" width="1" height="1" fill="#fff" stroke-width="0"></rect><rect x="6" y="4" width="1" height="1" fill="#aaa" stroke-width="0"></rect><rect x="7" y="4" width="1" height="1" fill="#aaa" stroke-width="0"></rect><rect x="8" y="4" width="1" height="1" fill="#aaa" stroke-width="0"></rect><rect x="9" y="4" width="1" height="1" fill="#aaa" stroke-width="0"></rect><rect x="0" y="5" width="1" height="1" fill="#fff" stroke-width="0"></rect><rect x="1" y="5" width="1" height="1" fill="#fff" stroke-width="0"></rect><rect x="2" y="5" width="1" height="1" fill="#fff" stroke-width="0"></rect><rect x="3" y="5" width="1" height="1" fill="#fff" stroke-width="0"></rect><rect x="4" y="5" width="1" height="1" fill="#aaa" stroke-width="0"></rect><rect x="5" y="5" width="1" height="1" fill="#aaa" stroke-width="0"></rect><rect x="6" y="5" width="1" height="1" fill="#aaa" stroke-width="0"></rect><rect x="7" y="5" width="1" height="1" fill="#aaa" stroke-width="0"></rect><rect x="8" y="5" width="1" height="1" fill="#aaa" stroke-width="0"></rect><rect x="9" y="5" width="1" height="1" fill="#aaa" stroke-width="0"></rect><rect x="0" y="6" width="1" height="1" fill="#fff" stroke-width="0"></rect><rect x="1" y="6" width="1" height="1" fill="#fff" stroke-width="0"></rect><rect x="2" y="6" width="1" height="1" fill="#fff" stroke-width="0"></rect><rect x="3" y="6" width="1" height="1" fill="#aaa" stroke-width="0"></rect><rect x="4" y="6" width="1" height="1" fill="#aaa" stroke-width="0"></rect><rect x="5" y="6" width="1" height="1" fill="#aaa" stroke-width="0"></rect><rect x="6" y="6" width="1" height="1" fill="#aaa" stroke-width="0"></rect><rect x="7" y="6" width="1" height="1" fill="#aaa" stroke-width="0"></rect><rect x="8" y="6" width="1" height="1" fill="#aaa" stroke-width="0"></rect><rect x="9" y="6" width="1" height="1" fill="#aaa" stroke-width="0"></rect><rect x="0" y="7" width="1" height="1" fill="#fff" stroke-width="0"></rect><rect x="1" y="7" width="1" height="1" fill="#fff" stroke-width="0"></rect><rect x="2" y="7" width="1" height="1" fill="#fff" stroke-width="0"></rect><rect x="3" y="7" width="1" height="1" fill="#aaa" stroke-width="0"></rect><rect x="4" y="7" width="1" height="1" fill="#aaa" stroke-width="0"></rect><rect x="5" y="7" width="1" height="1" fill="#fff" stroke-width="0"></rect><rect x="6" y="7" width="1" height="1" fill="#aaa" stroke-width="0"></rect><rect x="7" y="7" width="1" height="1" fill="#aaa" stroke-width="0"></rect><rect x="8" y="7" width="1" height="1" fill="#aaa" stroke-width="0"></rect><rect x="9" y="7" width="1" height="1" fill="#aaa" stroke-width="0"></rect><rect x="0" y="8" width="1" height="1" fill="#aaa" stroke-width="0"></rect><rect x="1" y="8" width="1" height="1" fill="#fff" stroke-width="0"></rect><rect x="2" y="8" width="1" height="1" fill="#fff" stroke-width="0"></rect><rect x="3" y="8" width="1" height="1" fill="#aaa" stroke-width="0"></rect><rect x="4" y="8" width="1" height="1" fill="#aaa" stroke-width="0"></rect><rect x="5" y="8" width="1" height="1" fill="#aaa" stroke-width="0"></rect><rect x="6" y="8" width="1" height="1" fill="#aaa" stroke-width="0"></rect><rect x="7" y="8" width="1" height="1" fill="#aaa" stroke-width="0"></rect><rect x="8" y="8" width="1" height="1" fill="#aaa" stroke-width="0"></rect><rect x="9" y="8" width="1" height="1" fill="#fff" stroke-width="0"></rect><rect x="0" y="9" width="1" height="1" fill="#aaa" stroke-width="0"></rect><rect x="1" y="9" width="1" height="1" fill="#aaa" stroke-width="0"></rect><rect x="2" y="9" width="1" height="1" fill="#fff" stroke-width="0"></rect><rect x="3" y="9" width="1" height="1" fill="#fff" stroke-width="0"></rect><rect x="4" y="9" width="1" height="1" fill="#aaa" stroke-width="0"></rect><rect x="5" y="9" width="1" height="1" fill="#aaa" stroke-width="0"></rect><rect x="6" y="9" width="1" height="1" fill="#aaa" stroke-width="0"></rect><rect x="7" y="9" width="1" height="1" fill="#aaa" stroke-width="0"></rect><rect x="8" y="9" width="1" height="1" fill="#fff" stroke-width="0"></rect><rect x="9" y="9" width="1" height="1" fill="#fff" stroke-width="0"></rect><line x1="-0.1" x2="10.1" y1="0" y2="0" stroke="black" stroke-width="0.2"></line><line x1="0" x2="0" y1="-0.1" y2="10.1" stroke="black" stroke-width="0.2"></line><line x1="-0.1" x2="10.1" y1="1" y2="1" stroke="black" stroke-width="0.06"></line><line x1="1" x2="1" y1="-0.1" y2="10.1" stroke="black" stroke-width="0.06"></line><line x1="-0.1" x2="10.1" y1="2" y2="2" stroke="black" stroke-width="0.06"></line><line x1="2" x2="2" y1="-0.1" y2="10.1" stroke="black" stroke-width="0.2"></line><line x1="-0.1" x2="10.1" y1="3" y2="3" stroke="black" stroke-width="0.06"></line><line x1="3" x2="3" y1="-0.1" y2="10.1" stroke="black" stroke-width="0.06"></line><line x1="-0.1" x2="10.1" y1="4" y2="4" stroke="black" stroke-width="0.06"></line><line x1="4" x2="4" y1="-0.1" y2="10.1" stroke="black" stroke-width="0.2"></line><line x1="-0.1" x2="10.1" y1="5" y2="5" stroke="black" stroke-width="0.2"></line><line x1="5" x2="5" y1="-0.1" y2="10.1" stroke="black" stroke-width="0.06"></line><line x1="-0.1" x2="10.1" y1="6" y2="6" stroke="black" stroke-width="0.06"></line><line x1="6" x2="6" y1="-0.1" y2="10.1" stroke="black" stroke-width="0.2"></line><line x1="-0.1" x2="10.1" y1="7" y2="7" stroke="black" stroke-width="0.06"></line><line x1="7" x2="7" y1="-0.1" y2="10.1" stroke="black" stroke-width="0.06"></line><line x1="-0.1" x2="10.1" y1="8" y2="8" stroke="black" stroke-width="0.06"></line><line x1="8" x2="8" y1="-0.1" y2="10.1" stroke="black" stroke-width="0.2"></line><line x1="-0.1" x2="10.1" y1="9" y2="9" stroke="black" stroke-width="0.06"></line><line x1="9" x2="9" y1="-0.1" y2="10.1" stroke="black" stroke-width="0.06"></line><line x1="-0.1" x2="10.1" y1="10" y2="10" stroke="black" stroke-width="0.2"></line><line x1="10" x2="10" y1="-0.1" y2="10.1" stroke="black" stroke-width="0.2"></line></svg>